{"title":"Rope(1948)MP-4[DaScubaDude]","uid":12358475,"size":988771176,"categoryP":"video","categoryS":"movies","magnet":"?xt=urn:btih:ef0bdac5f60206e52c5a8debcfa526853ec1c2e1&amp;dn=Rope%281948%29MP-4%5BDaScubaDude%5D&amp;tr=udp%3A%2F%2Ftracker.openbittorrent.com%3A80&amp;tr=udp%3A%2F%2Fopen.demonii.com%3A1337&amp;tr=udp%3A%2F%2Ftracker.coppersurfer.tk%3A6969&amp;tr=udp%3A%2F%2Fexodus.desync.com%3A6969","seeders":1,"leechers":0,"uploader":"dascuba","files":1,"time":1441503388,"description":"Rope (1948)\nPG  |  80 min  |  Crime, Drama, Thriller  |  28 August 1948 (USA)\n8.0 Your rating:   -/10   Ratings: 8.0/10 from 88,614 users   \nReviews: 315 user | 126 critic\nTwo young men strangle their &quot;inferior&quot; classmate, hide his body in their apartment, and invite his friends and family to a dinner party as a means to challenge the &quot;perfection&quot; of their crime.\n\nDirector: Alfred Hitchcock\nWriters: Hume Cronyn (adapted by), Patrick Hamilton (from the play by), 2 more credits Â»\nStars: James Stewart, John Dall, Farley Granger \n\nGeneral\nComplete name                            : C:The RopeTHE_ROPE_Title1.mp4\nFormat                                   : MPEG-4\nFormat profile                           : Base Media\nCodec ID                                 : isom\nFile size                                : 943 MiB\nDuration                                 : 1h 20mn\nOverall bit rate mode                    : Constant\nOverall bit rate                         : 1 632 Kbps\nMovie name                               : THE_ROPE\nGenre                                    : Thriller\nWriting application                      : Lavf54.6.100\n\nVideo\nID                                       : 1\nFormat                                   : MPEG-4 Visual\nFormat settings, BVOP                    : No\nFormat settings, QPel                    : No\nFormat settings, GMC                     : No warppoints\nFormat settings, Matrix                  : Default (H.263)\nCodec ID                                 : 20\nDuration                                 : 1h 20mn\nBit rate mode                            : Constant\nBit rate                                 : 1 499 Kbps\nWidth                                    : 720 pixels\nHeight                                   : 540 pixels\nDisplay aspect ratio                     : 4:3\nFrame rate mode                          : Constant\nFrame rate                               : 29.970 fps\nColor space                              : YUV\nChroma subsampling                       : 4:2:0\nBit depth                                : 8 bits\nScan type                                : Progressive\nCompression mode                         : Lossy\nBits/(Pixel*Frame)                       : 0.129\nStream size                              : 866 MiB (92%)\nWriting library                          : Lavc54.23.100\n\nAudio\nID                                       : 2\nFormat                                   : MPEG Audio\nFormat version                           : Version 1\nFormat profile                           : Layer 3\nCodec ID                                 : 6B\nDuration                                 : 1h 20mn\nBit rate mode                            : Constant\nBit rate                                 : 128 Kbps\nChannel(s)                               : 2 channels\nSampling rate                            : 44.1 KHz\nCompression mode                         : Lossy\nStream size                              : 74.0 MiB (8%)\nWriting library                          : LAME3.99.5","torrent":{"xt":"urn:btih:ef0bdac5f60206e52c5a8debcfa526853ec1c2e1","amp;dn":"Rope%281948%29MP-4%5BDaScubaDude%5D","amp;tr":["udp%3A%2F%2Ftracker.openbittorrent.com%3A80","udp%3A%2F%2Fopen.demonii.com%3A1337","udp%3A%2F%2Ftracker.coppersurfer.tk%3A6969","udp%3A%2F%2Fexodus.desync.com%3A6969"],"infoHash":"ef0bdac5f60206e52c5a8debcfa526853ec1c2e1","infoHashBuffer":{"type":"Buffer","data":[239,11,218,197,246,2,6,229,44,90,141,235,207,165,38,133,62,193,194,225]},"announce":[],"urlList":[]}}